<?xml version="1.0" encoding="UTF-8"?>
<svg height="128px" viewBox="0 0 128 128" width="128px" xmlns="http://www.w3.org/2000/svg" xmlns:xlink="http://www.w3.org/1999/xlink">
    <defs>
        <filter id="a" height="100%" width="100%" x="0%" y="0%">
            <feColorMatrix in="SourceGraphic" type="matrix" values="0 0 0 0 1 0 0 0 0 1 0 0 0 0 1 0 0 0 1 0"/>
        </filter>
        <mask id="b">
            <g filter="url(#a)">
                <rect fill-opacity="0.1" height="128" width="128"/>
            </g>
        </mask>
        <mask id="c">
            <g filter="url(#a)">
                <rect fill-opacity="0.1" height="128" width="128"/>
            </g>
        </mask>
        <clipPath id="d">
            <rect height="152" width="192"/>
        </clipPath>
        <g id="e" clip-path="url(#d)">
            <path d="m 72 27 c -29.824219 0 -54 24.175781 -54 54 c 0.007812 0.390625 0.023438 0.78125 0.042969 1.171875 c 0.453125 -29.484375 24.472656 -53.152344 53.957031 -53.171875 c 29.355469 0.015625 53.320312 23.480469 53.957031 52.828125 c 0.015625 -0.277344 0.03125 -0.550781 0.042969 -0.828125 c 0 -29.824219 -24.175781 -54 -54 -54 z m 0 0"/>
        </g>
        <clipPath id="f">
            <rect height="128" width="128"/>
        </clipPath>
        <clipPath id="g">
            <rect height="128" width="128"/>
        </clipPath>
        <mask id="h">
            <g clip-path="url(#g)" filter="url(#a)">
                <g clip-path="url(#f)">
                    <path d="m 124 67 c 0 33.136719 -26.863281 60 -60 60 s -60 -26.863281 -60 -60 s 26.863281 -60 60 -60 s 60 26.863281 60 60 z m 0 0" fill="#ffbe6f"/>
                    <path d="m 64 9 c 30.929688 0 56 25.070312 56 56 v 2 c 0 30.929688 -25.070312 56 -56 56 s -56 -25.070312 -56 -56 v -2 c 0 -30.929688 25.070312 -56 56 -56 z m 0 0" fill="#d5d3cf"/>
                    <path d="m 124 65 c 0 33.136719 -26.863281 60 -60 60 s -60 -26.863281 -60 -60 s 26.863281 -60 60 -60 s 60 26.863281 60 60 z m 0 0" fill="#ff7800"/>
                    <path d="m 118 65 c 0 29.824219 -24.175781 54 -54 54 s -54 -24.175781 -54 -54 s 24.175781 -54 54 -54 s 54 24.175781 54 54 z m 0 0" fill="#ffa348"/>
                    <use mask="url(#c)" transform="matrix(1 0 0 1 -8 -16)" xlink:href="#e"/>
                    <path d="m 52.140625 41.921875 c -12.074219 -20.273437 -12.074219 -20.273437 11.519531 -20.59375 s 23.59375 -0.320313 12.074219 20.273437 s -11.519531 20.59375 -23.59375 0.320313 z m 0 0" fill="#ffbe6f"/>
                    <path d="m 75.550781 91.980469 c 12.074219 20.273437 12.074219 20.273437 -11.523437 20.59375 c -23.59375 0.316406 -23.59375 0.316406 -12.074219 -20.277344 c 11.523437 -20.589844 11.523437 -20.589844 23.597656 -0.316406 z m 0 0" fill="#ffbe6f"/>
                    <path d="m 86.875 55.246094 c 20.273438 -12.074219 20.273438 -12.074219 20.589844 11.519531 c 0.320312 23.59375 0.320312 23.59375 -20.273438 12.074219 c -20.59375 -11.519532 -20.59375 -11.519532 -0.316406 -23.59375 z m 0 0" fill="#ffbe6f"/>
                    <path d="m 40.816406 78.65625 c -20.273437 12.074219 -20.273437 12.074219 -20.59375 -11.523438 c -0.320312 -23.59375 -0.320312 -23.59375 20.273438 -12.074218 c 20.59375 11.523437 20.59375 11.523437 0.320312 23.597656 z m 0 0" fill="#ffbe6f"/>
                </g>
            </g>
        </mask>
        <mask id="i">
            <g filter="url(#a)">
                <rect fill-opacity="0.8" height="128" width="128"/>
            </g>
        </mask>
        <linearGradient id="j" gradientTransform="matrix(0 0.37 -0.98462 0 295.38501 -30.360001)" gradientUnits="userSpaceOnUse" x1="300" x2="428" y1="235" y2="235">
            <stop offset="0" stop-color="#f9f06b"/>
            <stop offset="1" stop-color="#f5c211"/>
        </linearGradient>
        <clipPath id="k">
            <rect height="128" width="128"/>
        </clipPath>
        <clipPath id="l">
            <rect height="128" width="128"/>
        </clipPath>
    </defs>
    <path d="m 124 67 c 0 33.136719 -26.863281 60 -60 60 s -60 -26.863281 -60 -60 s 26.863281 -60 60 -60 s 60 26.863281 60 60 z m 0 0" fill="#ffbe6f"/>
    <path d="m 64 9 c 30.929688 0 56 25.070312 56 56 v 2 c 0 30.929688 -25.070312 56 -56 56 s -56 -25.070312 -56 -56 v -2 c 0 -30.929688 25.070312 -56 56 -56 z m 0 0" fill="#d5d3cf"/>
    <path d="m 124 65 c 0 33.136719 -26.863281 60 -60 60 s -60 -26.863281 -60 -60 s 26.863281 -60 60 -60 s 60 26.863281 60 60 z m 0 0" fill="#ff7800"/>
    <path d="m 118 65 c 0 29.824219 -24.175781 54 -54 54 s -54 -24.175781 -54 -54 s 24.175781 -54 54 -54 s 54 24.175781 54 54 z m 0 0" fill="#ffa348"/>
    <use mask="url(#b)" transform="matrix(1 0 0 1 -8 -16)" xlink:href="#e"/>
    <g fill="#ffbe6f">
        <path d="m 52.140625 41.921875 c -12.074219 -20.273437 -12.074219 -20.273437 11.519531 -20.59375 s 23.59375 -0.320313 12.074219 20.273437 s -11.519531 20.59375 -23.59375 0.320313 z m 0 0"/>
        <path d="m 75.550781 91.980469 c 12.074219 20.273437 12.074219 20.273437 -11.523437 20.59375 c -23.59375 0.316406 -23.59375 0.316406 -12.074219 -20.277344 c 11.523437 -20.589844 11.523437 -20.589844 23.597656 -0.316406 z m 0 0"/>
        <path d="m 86.875 55.246094 c 20.273438 -12.074219 20.273438 -12.074219 20.589844 11.519531 c 0.320312 23.59375 0.320312 23.59375 -20.273438 12.074219 c -20.59375 -11.519532 -20.59375 -11.519532 -0.316406 -23.59375 z m 0 0"/>
        <path d="m 40.816406 78.65625 c -20.273437 12.074219 -20.273437 12.074219 -20.59375 -11.523438 c -0.320312 -23.59375 -0.320312 -23.59375 20.273438 -12.074218 c 20.59375 11.523437 20.59375 11.523437 0.320312 23.597656 z m 0 0"/>
    </g>
    <g clip-path="url(#l)" mask="url(#h)">
        <g clip-path="url(#k)" mask="url(#i)">
            <path d="m 128 80.640625 v 47.359375 h -128 v -47.359375 z m 0 0" fill="url(#j)"/>
            <path d="m 13.308594 80.640625 l 47.355468 47.359375 h 21.214844 l -47.359375 -47.359375 z m 42.421875 0 l 47.363281 47.359375 h 21.214844 l -47.363282 -47.359375 z m 42.429687 0 l 29.839844 29.839844 v -21.210938 l -8.628906 -8.628906 z m -98.160156 7.90625 v 21.214844 l 18.238281 18.238281 h 21.214844 z m 0 0"/>
        </g>
    </g>
</svg>
