<?xml version="1.0" encoding="UTF-8"?>
<svg height="128px" viewBox="0 0 128 128" width="128px" xmlns="http://www.w3.org/2000/svg" xmlns:xlink="http://www.w3.org/1999/xlink">
    <linearGradient id="a" gradientUnits="userSpaceOnUse">
        <stop offset="0" stop-color="#77767b"/>
        <stop offset="0.0384615" stop-color="#c0bfbc"/>
        <stop offset="0.0768555" stop-color="#9a9996"/>
        <stop offset="0.923077" stop-color="#9a9996"/>
        <stop offset="0.961538" stop-color="#c0bfbc"/>
        <stop offset="1" stop-color="#77767b"/>
    </linearGradient>
    <linearGradient id="b" gradientTransform="matrix(0.110694 0 0 0.156854 3.288368 133.266862)" x1="88.595886" x2="536.595886" xlink:href="#a" y1="-449.394012" y2="-449.394012"/>
    <linearGradient id="c" gradientUnits="userSpaceOnUse">
        <stop offset="0" stop-color="#77767b"/>
        <stop offset="0.0384615" stop-color="#5e5c64"/>
        <stop offset="0.0768555" stop-color="#3d3846"/>
        <stop offset="0.923077" stop-color="#3d3846"/>
        <stop offset="0.961538" stop-color="#5e5c64"/>
        <stop offset="1" stop-color="#77767b"/>
    </linearGradient>
    <linearGradient id="d" gradientTransform="matrix(0.11113 0 0 0.157472 3.182495 133.642807)" x1="88.595886" x2="536.595886" xlink:href="#c" y1="-449.394012" y2="-449.394012"/>
    <linearGradient id="e" gradientTransform="matrix(0.110694 0 0 0.156854 3.362519 186.794704)" x1="88.595886" x2="536.595886" xlink:href="#a" y1="-449.394012" y2="-449.394012"/>
    <linearGradient id="f" gradientUnits="userSpaceOnUse">
        <stop offset="0" stop-color="#62a0ea"/>
        <stop offset="0.0384615" stop-color="#3584e4"/>
        <stop offset="0.0768555" stop-color="#1c71d8"/>
        <stop offset="0.923077" stop-color="#1c71d8"/>
        <stop offset="0.961538" stop-color="#3584e4"/>
        <stop offset="1" stop-color="#62a0ea"/>
    </linearGradient>
    <linearGradient id="g" gradientTransform="matrix(0.11113 0 0 0.157472 3.256639 187.170651)" x1="88.595886" x2="536.595886" xlink:href="#f" y1="-449.394012" y2="-449.394012"/>
    <linearGradient id="h" gradientTransform="matrix(0.110694 0 0 0.156854 55.390107 133.24692)" x1="88.595886" x2="536.595886" xlink:href="#a" y1="-449.394012" y2="-449.394012"/>
    <linearGradient id="i" gradientTransform="matrix(0.11113 0 0 0.157472 55.284227 133.622872)" x1="88.595886" x2="536.595886" xlink:href="#f" y1="-449.394012" y2="-449.394012"/>
    <linearGradient id="j" gradientTransform="matrix(0.110694 0 0 0.156854 55.391629 186.777845)" x1="88.595886" x2="536.595886" xlink:href="#a" y1="-449.394012" y2="-449.394012"/>
    <linearGradient id="k" gradientTransform="matrix(0.11113 0 0 0.157472 55.285735 187.153785)" x1="88.595886" x2="536.595886" xlink:href="#c" y1="-449.394012" y2="-449.394012"/>
    <clipPath id="l">
        <rect height="128" width="128"/>
    </clipPath>
    <clipPath id="m">
        <rect height="128" width="128"/>
    </clipPath>
    <filter id="n" height="100%" width="100%" x="0%" y="0%">
        <feColorMatrix in="SourceGraphic" type="matrix" values="0 0 0 0 1 0 0 0 0 1 0 0 0 0 1 0 0 0 1 0"/>
    </filter>
    <mask id="o">
        <g clip-path="url(#m)" filter="url(#n)">
            <g clip-path="url(#l)">
                <path d="m 16.910156 15.09375 h 41.960938 c 2.109375 0 3.816406 1.707031 3.816406 3.816406 v 40.050782 c 0 2.109374 -1.707031 3.816406 -3.816406 3.816406 h -41.960938 c -2.105468 0 -3.816406 -1.707032 -3.816406 -3.816406 v -40.050782 c 0 -2.109375 1.710938 -3.816406 3.816406 -3.816406 z m 0 0" fill="url(#b)"/>
                <path d="m 16.910156 13.1875 h 41.960938 c 2.109375 0 3.816406 1.707031 3.816406 3.8125 v 40.054688 c 0 2.109374 -1.707031 3.816406 -3.816406 3.816406 h -41.960938 c -2.105468 0 -3.816406 -1.707032 -3.816406 -3.816406 v -40.054688 c 0 -2.105469 1.710938 -3.8125 3.816406 -3.8125 z m 0 0" fill="#1a5fb4"/>
                <path d="m 16.859375 15.003906 h 42.125 c 2.117187 0 3.828125 1.714844 3.828125 3.832032 v 40.210937 c 0 2.113281 -1.710938 3.828125 -3.828125 3.828125 h -42.125 c -2.117187 0 -3.832031 -1.714844 -3.832031 -3.828125 v -40.210937 c 0 -2.117188 1.714844 -3.832032 3.832031 -3.832032 z m 0 0" fill="url(#d)"/>
                <path d="m 16.859375 13.089844 h 42.125 c 2.117187 0 3.828125 1.714844 3.828125 3.828125 v 40.214843 c 0 2.113282 -1.710938 3.828126 -3.828125 3.828126 h -42.125 c -2.117187 0 -3.832031 -1.714844 -3.832031 -3.828126 v -40.214843 c 0 -2.113281 1.714844 -3.828125 3.832031 -3.828125 z m 0 0" fill="#241f31"/>
                <path d="m 16.984375 68.621094 h 41.960937 c 2.105469 0 3.816407 1.707031 3.816407 3.816406 v 40.054688 c 0 2.105468 -1.710938 3.8125 -3.816407 3.8125 h -41.960937 c -2.105469 0 -3.816406 -1.707032 -3.816406 -3.8125 v -40.054688 c 0 -2.109375 1.710937 -3.816406 3.816406 -3.816406 z m 0 0" fill="url(#e)"/>
                <path d="m 16.984375 66.714844 h 41.960937 c 2.105469 0 3.816407 1.707031 3.816407 3.8125 v 40.054687 c 0 2.109375 -1.710938 3.816407 -3.816407 3.816407 h -41.960937 c -2.105469 0 -3.816406 -1.707032 -3.816406 -3.816407 v -40.054687 c 0 -2.105469 1.710937 -3.8125 3.816406 -3.8125 z m 0 0" fill="#1a5fb4"/>
                <path d="m 16.933594 68.53125 h 42.125 c 2.117187 0 3.828125 1.714844 3.828125 3.832031 v 40.210938 c 0 2.113281 -1.710938 3.828125 -3.828125 3.828125 h -42.125 c -2.117188 0 -3.832032 -1.714844 -3.832032 -3.828125 v -40.210938 c 0 -2.117187 1.714844 -3.832031 3.832032 -3.832031 z m 0 0" fill="url(#g)"/>
                <path d="m 16.933594 66.617188 h 42.125 c 2.117187 0 3.828125 1.714843 3.828125 3.832031 v 40.210937 c 0 2.113282 -1.710938 3.828125 -3.828125 3.828125 h -42.125 c -2.117188 0 -3.832032 -1.714843 -3.832032 -3.828125 v -40.210937 c 0 -2.117188 1.714844 -3.832031 3.832032 -3.832031 z m 0 0" fill="#1a5fb4"/>
                <path d="m 69.011719 15.074219 h 41.960937 c 2.109375 0 3.816406 1.707031 3.816406 3.816406 v 40.050781 c 0 2.109375 -1.707031 3.816406 -3.816406 3.816406 h -41.960937 c -2.105469 0 -3.816407 -1.707031 -3.816407 -3.816406 v -40.050781 c 0 -2.109375 1.710938 -3.816406 3.816407 -3.816406 z m 0 0" fill="url(#h)"/>
                <path d="m 69.011719 13.167969 h 41.960937 c 2.109375 0 3.816406 1.707031 3.816406 3.8125 v 40.054687 c 0 2.105469 -1.707031 3.816406 -3.816406 3.816406 h -41.960937 c -2.105469 0 -3.816407 -1.710937 -3.816407 -3.816406 v -40.054687 c 0 -2.105469 1.710938 -3.8125 3.816407 -3.8125 z m 0 0" fill="#1a5fb4"/>
                <path d="m 68.960938 14.984375 h 42.125 c 2.117187 0 3.832031 1.714844 3.832031 3.828125 v 40.214844 c 0 2.113281 -1.714844 3.828125 -3.832031 3.828125 h -42.125 c -2.117188 0 -3.832032 -1.714844 -3.832032 -3.828125 v -40.214844 c 0 -2.113281 1.714844 -3.828125 3.832032 -3.828125 z m 0 0" fill="url(#i)"/>
                <path d="m 68.960938 13.070312 h 42.125 c 2.117187 0 3.832031 1.714844 3.832031 3.828126 v 40.214843 c 0 2.113281 -1.714844 3.828125 -3.832031 3.828125 h -42.125 c -2.117188 0 -3.832032 -1.714844 -3.832032 -3.828125 v -40.214843 c 0 -2.113282 1.714844 -3.828126 3.832032 -3.828126 z m 0 0" fill="#1a5fb4"/>
                <path d="m 69.011719 68.605469 h 41.964843 c 2.105469 0 3.8125 1.707031 3.8125 3.8125 v 40.054687 c 0 2.109375 -1.707031 3.816406 -3.8125 3.816406 h -41.964843 c -2.105469 0 -3.8125 -1.707031 -3.8125 -3.816406 v -40.054687 c 0 -2.105469 1.707031 -3.8125 3.8125 -3.8125 z m 0 0" fill="url(#j)"/>
                <path d="m 69.011719 66.699219 h 41.964843 c 2.105469 0 3.8125 1.707031 3.8125 3.8125 v 40.054687 c 0 2.105469 -1.707031 3.816406 -3.8125 3.816406 h -41.964843 c -2.105469 0 -3.8125 -1.710937 -3.8125 -3.816406 v -40.054687 c 0 -2.105469 1.707031 -3.8125 3.8125 -3.8125 z m 0 0" fill="#1a5fb4"/>
                <path d="m 68.960938 68.515625 h 42.125 c 2.117187 0 3.832031 1.714844 3.832031 3.828125 v 40.214844 c 0 2.113281 -1.714844 3.828125 -3.832031 3.828125 h -42.125 c -2.113282 0 -3.828126 -1.714844 -3.828126 -3.828125 v -40.214844 c 0 -2.113281 1.714844 -3.828125 3.828126 -3.828125 z m 0 0" fill="url(#k)"/>
                <path d="m 68.960938 66.601562 h 42.125 c 2.117187 0 3.832031 1.714844 3.832031 3.828126 v 40.210937 c 0 2.117187 -1.714844 3.832031 -3.832031 3.832031 h -42.125 c -2.113282 0 -3.828126 -1.714844 -3.828126 -3.832031 v -40.210937 c 0 -2.113282 1.714844 -3.828126 3.828126 -3.828126 z m 0 0" fill="#241f31"/>
            </g>
        </g>
    </mask>
    <mask id="p">
        <g filter="url(#n)">
            <rect fill-opacity="0.8" height="128" width="128"/>
        </g>
    </mask>
    <linearGradient id="q" gradientTransform="matrix(0 0.37 -0.98462 0 295.38501 -30.360001)" gradientUnits="userSpaceOnUse" x1="300" x2="428" y1="235" y2="235">
        <stop offset="0" stop-color="#f9f06b"/>
        <stop offset="1" stop-color="#f5c211"/>
    </linearGradient>
    <clipPath id="r">
        <rect height="128" width="128"/>
    </clipPath>
    <clipPath id="s">
        <rect height="128" width="128"/>
    </clipPath>
    <path d="m 16.910156 15.09375 h 41.960938 c 2.109375 0 3.816406 1.707031 3.816406 3.816406 v 40.050782 c 0 2.109374 -1.707031 3.816406 -3.816406 3.816406 h -41.960938 c -2.105468 0 -3.816406 -1.707032 -3.816406 -3.816406 v -40.050782 c 0 -2.109375 1.710938 -3.816406 3.816406 -3.816406 z m 0 0" fill="url(#b)"/>
    <path d="m 16.910156 13.1875 h 41.960938 c 2.109375 0 3.816406 1.707031 3.816406 3.8125 v 40.054688 c 0 2.109374 -1.707031 3.816406 -3.816406 3.816406 h -41.960938 c -2.105468 0 -3.816406 -1.707032 -3.816406 -3.816406 v -40.054688 c 0 -2.105469 1.710938 -3.8125 3.816406 -3.8125 z m 0 0" fill="#1a5fb4"/>
    <path d="m 16.859375 15.003906 h 42.125 c 2.117187 0 3.828125 1.714844 3.828125 3.832032 v 40.210937 c 0 2.113281 -1.710938 3.828125 -3.828125 3.828125 h -42.125 c -2.117187 0 -3.832031 -1.714844 -3.832031 -3.828125 v -40.210937 c 0 -2.117188 1.714844 -3.832032 3.832031 -3.832032 z m 0 0" fill="url(#d)"/>
    <path d="m 16.859375 13.089844 h 42.125 c 2.117187 0 3.828125 1.714844 3.828125 3.828125 v 40.214843 c 0 2.113282 -1.710938 3.828126 -3.828125 3.828126 h -42.125 c -2.117187 0 -3.832031 -1.714844 -3.832031 -3.828126 v -40.214843 c 0 -2.113281 1.714844 -3.828125 3.832031 -3.828125 z m 0 0" fill="#241f31"/>
    <path d="m 16.984375 68.621094 h 41.960937 c 2.105469 0 3.816407 1.707031 3.816407 3.816406 v 40.054688 c 0 2.105468 -1.710938 3.8125 -3.816407 3.8125 h -41.960937 c -2.105469 0 -3.816406 -1.707032 -3.816406 -3.8125 v -40.054688 c 0 -2.109375 1.710937 -3.816406 3.816406 -3.816406 z m 0 0" fill="url(#e)"/>
    <path d="m 16.984375 66.714844 h 41.960937 c 2.105469 0 3.816407 1.707031 3.816407 3.8125 v 40.054687 c 0 2.109375 -1.710938 3.816407 -3.816407 3.816407 h -41.960937 c -2.105469 0 -3.816406 -1.707032 -3.816406 -3.816407 v -40.054687 c 0 -2.105469 1.710937 -3.8125 3.816406 -3.8125 z m 0 0" fill="#1a5fb4"/>
    <path d="m 16.933594 68.53125 h 42.125 c 2.117187 0 3.828125 1.714844 3.828125 3.832031 v 40.210938 c 0 2.113281 -1.710938 3.828125 -3.828125 3.828125 h -42.125 c -2.117188 0 -3.832032 -1.714844 -3.832032 -3.828125 v -40.210938 c 0 -2.117187 1.714844 -3.832031 3.832032 -3.832031 z m 0 0" fill="url(#g)"/>
    <path d="m 16.933594 66.617188 h 42.125 c 2.117187 0 3.828125 1.714843 3.828125 3.832031 v 40.210937 c 0 2.113282 -1.710938 3.828125 -3.828125 3.828125 h -42.125 c -2.117188 0 -3.832032 -1.714843 -3.832032 -3.828125 v -40.210937 c 0 -2.117188 1.714844 -3.832031 3.832032 -3.832031 z m 0 0" fill="#1a5fb4"/>
    <path d="m 69.011719 15.074219 h 41.960937 c 2.109375 0 3.816406 1.707031 3.816406 3.816406 v 40.050781 c 0 2.109375 -1.707031 3.816406 -3.816406 3.816406 h -41.960937 c -2.105469 0 -3.816407 -1.707031 -3.816407 -3.816406 v -40.050781 c 0 -2.109375 1.710938 -3.816406 3.816407 -3.816406 z m 0 0" fill="url(#h)"/>
    <path d="m 69.011719 13.167969 h 41.960937 c 2.109375 0 3.816406 1.707031 3.816406 3.8125 v 40.054687 c 0 2.105469 -1.707031 3.816406 -3.816406 3.816406 h -41.960937 c -2.105469 0 -3.816407 -1.710937 -3.816407 -3.816406 v -40.054687 c 0 -2.105469 1.710938 -3.8125 3.816407 -3.8125 z m 0 0" fill="#1a5fb4"/>
    <path d="m 68.960938 14.984375 h 42.125 c 2.117187 0 3.832031 1.714844 3.832031 3.828125 v 40.214844 c 0 2.113281 -1.714844 3.828125 -3.832031 3.828125 h -42.125 c -2.117188 0 -3.832032 -1.714844 -3.832032 -3.828125 v -40.214844 c 0 -2.113281 1.714844 -3.828125 3.832032 -3.828125 z m 0 0" fill="url(#i)"/>
    <path d="m 68.960938 13.070312 h 42.125 c 2.117187 0 3.832031 1.714844 3.832031 3.828126 v 40.214843 c 0 2.113281 -1.714844 3.828125 -3.832031 3.828125 h -42.125 c -2.117188 0 -3.832032 -1.714844 -3.832032 -3.828125 v -40.214843 c 0 -2.113282 1.714844 -3.828126 3.832032 -3.828126 z m 0 0" fill="#1a5fb4"/>
    <path d="m 69.011719 68.605469 h 41.964843 c 2.105469 0 3.8125 1.707031 3.8125 3.8125 v 40.054687 c 0 2.109375 -1.707031 3.816406 -3.8125 3.816406 h -41.964843 c -2.105469 0 -3.8125 -1.707031 -3.8125 -3.816406 v -40.054687 c 0 -2.105469 1.707031 -3.8125 3.8125 -3.8125 z m 0 0" fill="url(#j)"/>
    <path d="m 69.011719 66.699219 h 41.964843 c 2.105469 0 3.8125 1.707031 3.8125 3.8125 v 40.054687 c 0 2.105469 -1.707031 3.816406 -3.8125 3.816406 h -41.964843 c -2.105469 0 -3.8125 -1.710937 -3.8125 -3.816406 v -40.054687 c 0 -2.105469 1.707031 -3.8125 3.8125 -3.8125 z m 0 0" fill="#1a5fb4"/>
    <path d="m 68.960938 68.515625 h 42.125 c 2.117187 0 3.832031 1.714844 3.832031 3.828125 v 40.214844 c 0 2.113281 -1.714844 3.828125 -3.832031 3.828125 h -42.125 c -2.113282 0 -3.828126 -1.714844 -3.828126 -3.828125 v -40.214844 c 0 -2.113281 1.714844 -3.828125 3.828126 -3.828125 z m 0 0" fill="url(#k)"/>
    <path d="m 68.960938 66.601562 h 42.125 c 2.117187 0 3.832031 1.714844 3.832031 3.828126 v 40.210937 c 0 2.117187 -1.714844 3.832031 -3.832031 3.832031 h -42.125 c -2.113282 0 -3.828126 -1.714844 -3.828126 -3.832031 v -40.210937 c 0 -2.113282 1.714844 -3.828126 3.828126 -3.828126 z m 0 0" fill="#241f31"/>
    <g clip-path="url(#s)" mask="url(#o)">
        <g clip-path="url(#r)" mask="url(#p)">
            <path d="m 128 80.640625 v 47.359375 h -128 v -47.359375 z m 0 0" fill="url(#q)"/>
            <path d="m 13.308594 80.640625 l 47.355468 47.359375 h 21.214844 l -47.359375 -47.359375 z m 42.421875 0 l 47.363281 47.359375 h 21.214844 l -47.363282 -47.359375 z m 42.429687 0 l 29.839844 29.839844 v -21.210938 l -8.628906 -8.628906 z m -98.160156 7.90625 v 21.214844 l 18.238281 18.238281 h 21.214844 z m 0 0"/>
        </g>
    </g>
</svg>
