<?xml version="1.0" encoding="UTF-8"?>
<svg height="128px" viewBox="0 0 128 128" width="128px" xmlns="http://www.w3.org/2000/svg" xmlns:xlink="http://www.w3.org/1999/xlink">
    <linearGradient id="a" gradientTransform="matrix(0.232143 0 0 0.328947 -8.56691 263.826965)" gradientUnits="userSpaceOnUse" x1="88.595886" x2="536.595886" y1="-449.394012" y2="-449.394012">
        <stop offset="0" stop-color="#77767b"/>
        <stop offset="0.0384615" stop-color="#5e5c64"/>
        <stop offset="0.0768555" stop-color="#3d3846"/>
        <stop offset="0.923077" stop-color="#3d3846"/>
        <stop offset="0.961538" stop-color="#5e5c64"/>
        <stop offset="1" stop-color="#77767b"/>
    </linearGradient>
    <clipPath id="b">
        <rect height="128" width="128"/>
    </clipPath>
    <clipPath id="c">
        <rect height="128" width="128"/>
    </clipPath>
    <filter id="d" height="100%" width="100%" x="0%" y="0%">
        <feColorMatrix in="SourceGraphic" type="matrix" values="0 0 0 0 1 0 0 0 0 1 0 0 0 0 1 0 0 0 1 0"/>
    </filter>
    <mask id="e">
        <g clip-path="url(#c)" filter="url(#d)">
            <g clip-path="url(#b)">
                <path d="m 20 16 h 88 c 4.417969 0 8 3.582031 8 8 v 84 c 0 4.417969 -3.582031 8 -8 8 h -88 c -4.417969 0 -8 -3.582031 -8 -8 v -84 c 0 -4.417969 3.582031 -8 8 -8 z m 0 0" fill="url(#a)"/>
                <path d="m 20 12 h 88 c 4.417969 0 8 3.582031 8 8 v 84 c 0 4.417969 -3.582031 8 -8 8 h -88 c -4.417969 0 -8 -3.582031 -8 -8 v -84 c 0 -4.417969 3.582031 -8 8 -8 z m 0 0" fill="#241f31"/>
                <path d="m 75.050781 29.273438 v 39.5625 c -2.921875 1.015624 -4.886719 3.769531 -4.890625 6.863281 v 14.707031 c 0 4.289062 3.195313 7.316406 7.335938 7.316406 c 4.183594 0 7.332031 -2.980468 7.332031 -7.316406 v -14.707031 c -0.003906 -3.09375 -1.964844 -5.847657 -4.886719 -6.863281 v -5.339844 h 3.246094 c 1.71875 0.007812 3.367188 -0.671875 4.585938 -1.882813 c 1.214843 -1.214843 1.898437 -2.863281 1.898437 -4.582031 v -8.203125 c 0 -11.644531 -4.84375 -19.554687 -14.621094 -19.554687 z m -39.113281 4.886718 v 16.867188 c 0 4.152344 3.417969 7.570312 7.582031 7.570312 h 2.195313 v 10.238282 c -2.921875 1.015624 -4.886719 3.769531 -4.890625 6.863281 v 14.707031 c 0 1.945312 0.773437 3.808594 2.148437 5.183594 c 1.378906 1.371094 3.242188 2.140625 5.1875 2.132812 c 1.945313 0.007813 3.808594 -0.761718 5.1875 -2.132812 c 1.375 -1.375 2.148438 -3.238282 2.144532 -5.183594 v -14.707031 c -0.003907 -3.09375 -1.964844 -5.847657 -4.886719 -6.863281 v -10.238282 h 2.195312 c 4.167969 0 7.59375 -3.417968 7.59375 -7.570312 v -16.867188 c 0 -2.519531 -2.289062 -4.886718 -4.902343 -4.886718 v 21.753906 c 0 1.539062 -1.160157 2.691406 -2.691407 2.691406 h -2.195312 v -24.359375 l -4.890625 -0.011719 v 24.371094 h -2.195313 c -0.71875 0.015625 -1.414062 -0.261719 -1.921875 -0.769531 c -0.511718 -0.507813 -0.789062 -1.203125 -0.773437 -1.921875 v -21.753906 c -2.671875 0 -4.886719 2.25 -4.886719 4.886718 z m 0 0" fill="#c0bfbc"/>
            </g>
        </g>
    </mask>
    <mask id="f">
        <g filter="url(#d)">
            <rect fill-opacity="0.8" height="128" width="128"/>
        </g>
    </mask>
    <linearGradient id="g" gradientTransform="matrix(0 0.37 -0.98462 0 295.38501 -30.360001)" gradientUnits="userSpaceOnUse" x1="300" x2="428" y1="235" y2="235">
        <stop offset="0" stop-color="#f9f06b"/>
        <stop offset="1" stop-color="#f5c211"/>
    </linearGradient>
    <clipPath id="h">
        <rect height="128" width="128"/>
    </clipPath>
    <clipPath id="i">
        <rect height="128" width="128"/>
    </clipPath>
    <path d="m 20 16 h 88 c 4.417969 0 8 3.582031 8 8 v 84 c 0 4.417969 -3.582031 8 -8 8 h -88 c -4.417969 0 -8 -3.582031 -8 -8 v -84 c 0 -4.417969 3.582031 -8 8 -8 z m 0 0" fill="url(#a)"/>
    <path d="m 20 12 h 88 c 4.417969 0 8 3.582031 8 8 v 84 c 0 4.417969 -3.582031 8 -8 8 h -88 c -4.417969 0 -8 -3.582031 -8 -8 v -84 c 0 -4.417969 3.582031 -8 8 -8 z m 0 0" fill="#241f31"/>
    <path d="m 75.050781 29.273438 v 39.5625 c -2.921875 1.015624 -4.886719 3.769531 -4.890625 6.863281 v 14.707031 c 0 4.289062 3.195313 7.316406 7.335938 7.316406 c 4.183594 0 7.332031 -2.980468 7.332031 -7.316406 v -14.707031 c -0.003906 -3.09375 -1.964844 -5.847657 -4.886719 -6.863281 v -5.339844 h 3.246094 c 1.71875 0.007812 3.367188 -0.671875 4.585938 -1.882813 c 1.214843 -1.214843 1.898437 -2.863281 1.898437 -4.582031 v -8.203125 c 0 -11.644531 -4.84375 -19.554687 -14.621094 -19.554687 z m -39.113281 4.886718 v 16.867188 c 0 4.152344 3.417969 7.570312 7.582031 7.570312 h 2.195313 v 10.238282 c -2.921875 1.015624 -4.886719 3.769531 -4.890625 6.863281 v 14.707031 c 0 1.945312 0.773437 3.808594 2.148437 5.183594 c 1.378906 1.371094 3.242188 2.140625 5.1875 2.132812 c 1.945313 0.007813 3.808594 -0.761718 5.1875 -2.132812 c 1.375 -1.375 2.148438 -3.238282 2.144532 -5.183594 v -14.707031 c -0.003907 -3.09375 -1.964844 -5.847657 -4.886719 -6.863281 v -10.238282 h 2.195312 c 4.167969 0 7.59375 -3.417968 7.59375 -7.570312 v -16.867188 c 0 -2.519531 -2.289062 -4.886718 -4.902343 -4.886718 v 21.753906 c 0 1.539062 -1.160157 2.691406 -2.691407 2.691406 h -2.195312 v -24.359375 l -4.890625 -0.011719 v 24.371094 h -2.195313 c -0.71875 0.015625 -1.414062 -0.261719 -1.921875 -0.769531 c -0.511718 -0.507813 -0.789062 -1.203125 -0.773437 -1.921875 v -21.753906 c -2.671875 0 -4.886719 2.25 -4.886719 4.886718 z m 0 0" fill="#c0bfbc"/>
    <g clip-path="url(#i)" mask="url(#e)">
        <g clip-path="url(#h)" mask="url(#f)">
            <path d="m 128 80.640625 v 47.359375 h -128 v -47.359375 z m 0 0" fill="url(#g)"/>
            <path d="m 13.308594 80.640625 l 47.355468 47.359375 h 21.214844 l -47.359375 -47.359375 z m 42.421875 0 l 47.363281 47.359375 h 21.214844 l -47.363282 -47.359375 z m 42.429687 0 l 29.839844 29.839844 v -21.210938 l -8.628906 -8.628906 z m -98.160156 7.90625 v 21.214844 l 18.238281 18.238281 h 21.214844 z m 0 0"/>
        </g>
    </g>
</svg>
