<?xml version="1.0" encoding="UTF-8"?>
<svg height="128px" viewBox="0 0 128 128" width="128px" xmlns="http://www.w3.org/2000/svg" xmlns:xlink="http://www.w3.org/1999/xlink">
    <linearGradient id="a" gradientTransform="matrix(0.196428 0 0 0.342105 2.59729 273.740051)" gradientUnits="userSpaceOnUse" x1="88.595886" x2="536.595886" y1="-449.394012" y2="-449.394012">
        <stop offset="0" stop-color="#deddda"/>
        <stop offset="0.0500001" stop-color="#c0bfbc"/>
        <stop offset="0.099807" stop-color="#9a9996"/>
        <stop offset="0.900001" stop-color="#9a9996"/>
        <stop offset="0.950001" stop-color="#c0bfbc"/>
        <stop offset="1" stop-color="#deddda"/>
    </linearGradient>
    <clipPath id="b">
        <rect height="128" width="128"/>
    </clipPath>
    <clipPath id="c">
        <rect height="128" width="128"/>
    </clipPath>
    <filter id="d" height="100%" width="100%" x="0%" y="0%">
        <feColorMatrix in="SourceGraphic" type="matrix" values="0 0 0 0 1 0 0 0 0 1 0 0 0 0 1 0 0 0 1 0"/>
    </filter>
    <mask id="e">
        <g clip-path="url(#c)" filter="url(#d)">
            <g clip-path="url(#b)">
                <path d="m 28 16 h 72 c 4.417969 0 8 3.582031 8 8 v 88 c 0 4.417969 -3.582031 8 -8 8 h -72 c -4.417969 0 -8 -3.582031 -8 -8 v -88 c 0 -4.417969 3.582031 -8 8 -8 z m 0 0" fill="url(#a)"/>
                <path d="m 28 8 h 72 c 4.417969 0 8 3.582031 8 8 v 92 c 0 4.417969 -3.582031 8 -8 8 h -72 c -4.417969 0 -8 -3.582031 -8 -8 v -92 c 0 -4.417969 3.582031 -8 8 -8 z m 0 0" fill="#f6f5f4"/>
                <path d="m 36.234375 29.097656 h -4.8125 l -0.765625 2.171875 h -3.09375 l 4.421875 -11.9375 h 3.671875 l 4.421875 11.9375 h -3.09375 z m -4.046875 -2.21875 h 3.265625 l -1.625 -4.75 z m -4.703125 -10.8125" fill="#ed333b"/>
                <path d="m 30.882812 32.777344 c 1.207032 0 2.15625 0.703125 2.84375 2.109375 c 0.25 0.554687 0.378907 0.976562 0.390626 1.265625 h 0.03125 c 0.207031 -0.96875 0.582031 -1.769532 1.125 -2.40625 c 0.644531 -0.644532 1.367187 -0.96875 2.171874 -0.96875 c 1.238282 0 2.234376 0.667968 2.984376 2 c 0.195312 0.5 0.296874 0.964844 0.296874 1.390625 c 0 1.492187 -0.621093 2.914062 -1.859374 4.265625 l -4.71875 5.65625 h -0.046876 l -5.015624 -6.140625 c -1 -1.21875 -1.5 -2.476563 -1.5 -3.78125 c 0 -1.25 0.585937 -2.242188 1.765624 -2.984375 c 0.5 -0.269532 1.007813 -0.40625 1.53125 -0.40625 z m -4.921874 -3.640625" fill="#ed333b"/>
                <path d="m 90.09375 99.5625 h 4.8125 l 0.765625 -2.171875 h 3.09375 l -4.421875 11.9375 h -3.671875 l -4.421875 -11.9375 h 3.09375 z m 4.046875 2.21875 h -3.265625 l 1.625 4.75 z m 4.703125 10.8125" fill="#ed333b"/>
                <path d="m 95.945312 94.464844 c -1.207031 0 -2.15625 -0.703125 -2.84375 -2.109375 c -0.25 -0.554688 -0.378906 -0.976563 -0.390624 -1.265625 h -0.03125 c -0.207032 0.96875 -0.582032 1.769531 -1.125 2.40625 c -0.644532 0.644531 -1.367188 0.96875 -2.171876 0.96875 c -1.238281 0 -2.234374 -0.667969 -2.984374 -2 c -0.195313 -0.5 -0.296876 -0.964844 -0.296876 -1.390625 c 0 -1.492188 0.621094 -2.914063 1.859376 -4.265625 l 4.71875 -5.65625 h 0.046874 l 5.015626 6.140625 c 1 1.21875 1.5 2.476562 1.5 3.78125 c 0 1.25 -0.585938 2.242187 -1.765626 2.984375 c -0.5 0.269531 -1.007812 0.40625 -1.53125 0.40625 z m 4.921876 3.640625" fill="#ed333b"/>
                <path d="m 57.027344 46.664062 c 3.226562 0 5.765625 1.871094 7.609375 5.609376 c 0.664062 1.480468 1.015625 2.609374 1.046875 3.390624 h 0.078125 c 0.550781 -2.582031 1.5625 -4.722656 3.03125 -6.421874 c 1.707031 -1.71875 3.640625 -2.578126 5.796875 -2.578126 c 3.320312 0 5.984375 1.78125 7.984375 5.34375 c 0.507812 1.324219 0.765625 2.5625 0.765625 3.71875 c 0 3.980469 -1.65625 7.773438 -4.96875 11.375 l -12.609375 15.15625 h -0.15625 l -13.40625 -16.4375 c -2.667969 -3.257812 -4 -6.625 -4 -10.09375 c 0 -3.351562 1.582031 -6.015624 4.75 -7.984374 c 1.332031 -0.71875 2.691406 -1.078126 4.078125 -1.078126 z m -13.171875 -9.761718" fill="#ed333b"/>
            </g>
        </g>
    </mask>
    <mask id="f">
        <g filter="url(#d)">
            <rect fill-opacity="0.8" height="128" width="128"/>
        </g>
    </mask>
    <linearGradient id="g" gradientTransform="matrix(0 0.37 -0.98462 0 295.38501 -30.360001)" gradientUnits="userSpaceOnUse" x1="300" x2="428" y1="235" y2="235">
        <stop offset="0" stop-color="#f9f06b"/>
        <stop offset="1" stop-color="#f5c211"/>
    </linearGradient>
    <clipPath id="h">
        <rect height="128" width="128"/>
    </clipPath>
    <clipPath id="i">
        <rect height="128" width="128"/>
    </clipPath>
    <path d="m 28 16 h 72 c 4.417969 0 8 3.582031 8 8 v 88 c 0 4.417969 -3.582031 8 -8 8 h -72 c -4.417969 0 -8 -3.582031 -8 -8 v -88 c 0 -4.417969 3.582031 -8 8 -8 z m 0 0" fill="url(#a)"/>
    <path d="m 28 8 h 72 c 4.417969 0 8 3.582031 8 8 v 92 c 0 4.417969 -3.582031 8 -8 8 h -72 c -4.417969 0 -8 -3.582031 -8 -8 v -92 c 0 -4.417969 3.582031 -8 8 -8 z m 0 0" fill="#f6f5f4"/>
    <g fill="#ed333b">
        <path d="m 36.234375 29.097656 h -4.8125 l -0.765625 2.171875 h -3.09375 l 4.421875 -11.9375 h 3.671875 l 4.421875 11.9375 h -3.09375 z m -4.046875 -2.21875 h 3.265625 l -1.625 -4.75 z m -4.703125 -10.8125"/>
        <path d="m 30.882812 32.777344 c 1.207032 0 2.15625 0.703125 2.84375 2.109375 c 0.25 0.554687 0.378907 0.976562 0.390626 1.265625 h 0.03125 c 0.207031 -0.96875 0.582031 -1.769532 1.125 -2.40625 c 0.644531 -0.644532 1.367187 -0.96875 2.171874 -0.96875 c 1.238282 0 2.234376 0.667968 2.984376 2 c 0.195312 0.5 0.296874 0.964844 0.296874 1.390625 c 0 1.492187 -0.621093 2.914062 -1.859374 4.265625 l -4.71875 5.65625 h -0.046876 l -5.015624 -6.140625 c -1 -1.21875 -1.5 -2.476563 -1.5 -3.78125 c 0 -1.25 0.585937 -2.242188 1.765624 -2.984375 c 0.5 -0.269532 1.007813 -0.40625 1.53125 -0.40625 z m -4.921874 -3.640625"/>
        <path d="m 90.09375 99.5625 h 4.8125 l 0.765625 -2.171875 h 3.09375 l -4.421875 11.9375 h -3.671875 l -4.421875 -11.9375 h 3.09375 z m 4.046875 2.21875 h -3.265625 l 1.625 4.75 z m 4.703125 10.8125"/>
        <path d="m 95.945312 94.464844 c -1.207031 0 -2.15625 -0.703125 -2.84375 -2.109375 c -0.25 -0.554688 -0.378906 -0.976563 -0.390624 -1.265625 h -0.03125 c -0.207032 0.96875 -0.582032 1.769531 -1.125 2.40625 c -0.644532 0.644531 -1.367188 0.96875 -2.171876 0.96875 c -1.238281 0 -2.234374 -0.667969 -2.984374 -2 c -0.195313 -0.5 -0.296876 -0.964844 -0.296876 -1.390625 c 0 -1.492188 0.621094 -2.914063 1.859376 -4.265625 l 4.71875 -5.65625 h 0.046874 l 5.015626 6.140625 c 1 1.21875 1.5 2.476562 1.5 3.78125 c 0 1.25 -0.585938 2.242187 -1.765626 2.984375 c -0.5 0.269531 -1.007812 0.40625 -1.53125 0.40625 z m 4.921876 3.640625"/>
        <path d="m 57.027344 46.664062 c 3.226562 0 5.765625 1.871094 7.609375 5.609376 c 0.664062 1.480468 1.015625 2.609374 1.046875 3.390624 h 0.078125 c 0.550781 -2.582031 1.5625 -4.722656 3.03125 -6.421874 c 1.707031 -1.71875 3.640625 -2.578126 5.796875 -2.578126 c 3.320312 0 5.984375 1.78125 7.984375 5.34375 c 0.507812 1.324219 0.765625 2.5625 0.765625 3.71875 c 0 3.980469 -1.65625 7.773438 -4.96875 11.375 l -12.609375 15.15625 h -0.15625 l -13.40625 -16.4375 c -2.667969 -3.257812 -4 -6.625 -4 -10.09375 c 0 -3.351562 1.582031 -6.015624 4.75 -7.984374 c 1.332031 -0.71875 2.691406 -1.078126 4.078125 -1.078126 z m -13.171875 -9.761718"/>
    </g>
    <g clip-path="url(#i)" mask="url(#e)">
        <g clip-path="url(#h)" mask="url(#f)">
            <path d="m 128 80.640625 v 47.359375 h -128 v -47.359375 z m 0 0" fill="url(#g)"/>
            <path d="m 13.308594 80.640625 l 47.355468 47.359375 h 21.214844 l -47.359375 -47.359375 z m 42.421875 0 l 47.363281 47.359375 h 21.214844 l -47.363282 -47.359375 z m 42.429687 0 l 29.839844 29.839844 v -21.210938 l -8.628906 -8.628906 z m -98.160156 7.90625 v 21.214844 l 18.238281 18.238281 h 21.214844 z m 0 0"/>
        </g>
    </g>
</svg>
